<svg width="180" height="38" viewBox="0 0 180 38" version="1.1" xmlns="http://www.w3.org/2000/svg" xmlns:xlink="http://www.w3.org/1999/xlink">
<title>Artboard 1</title>
<desc>Created using Figma</desc>
<g id="Canvas" transform="translate(6027 -1943)">
<g id="Artboard 1">
<g id="Vector">
<use xlink:href="#path0_fill" transform="translate(-6026.92 1943.23)" fill="#87C8EC"/>
</g>
<g id="Vector">
<use xlink:href="#path1_fill" transform="translate(-6001.94 1943.13)" fill="#347ABC"/>
</g>
<g id="Vector">
<use xlink:href="#path2_fill" transform="translate(-6000.68 1967.13)"/>
</g>
<g id="Vector">
<use xlink:href="#path3_fill" transform="translate(-6002.16 1948.09)"/>
</g>
<g id="Vector">
<use xlink:href="#path4_fill" transform="translate(-5950.65 1946.47)" fill="#1D1D1B"/>
</g>
<g id="Vector">
<use xlink:href="#path5_fill" transform="translate(-5932.11 1946.48)" fill="#1D1D1B"/>
</g>
<g id="Vector">
<use xlink:href="#path6_fill" transform="translate(-5920.69 1946.57)" fill="#1D1D1B"/>
</g>
<g id="Vector">
<use xlink:href="#path7_fill" transform="translate(-5913.81 1946.55)" fill="#1D1D1B"/>
</g>
<g id="Vector">
<use xlink:href="#path8_fill" transform="translate(-5902.18 1946.69)" fill="#1D1D1B"/>
</g>
<g id="Vector">
<use xlink:href="#path9_fill" transform="translate(-5891.15 1946.47)" fill="#1D1D1B"/>
</g>
<g id="Vector">
<use xlink:href="#path10_fill" transform="translate(-5938.53 1949.16)" fill="#1D1D1B"/>
</g>
<g id="Vector">
<use xlink:href="#path11_fill" transform="translate(-5950.17 1970.04)" fill="#1D1D1B"/>
</g>
<g id="Vector">
<use xlink:href="#path12_fill" transform="translate(-5942.4 1970.04)" fill="#1D1D1B"/>
</g>
<g id="Vector">
<use xlink:href="#path13_fill" transform="translate(-5934.65 1970.21)" fill="#1D1D1B"/>
</g>
<g id="Vector">
<use xlink:href="#path14_fill" transform="translate(-5924.68 1970.04)" fill="#1D1D1B"/>
</g>
<g id="Vector">
<use xlink:href="#path15_fill" transform="translate(-5915.87 1970.21)" fill="#1D1D1B"/>
</g>
<g id="Vector">
<use xlink:href="#path16_fill" transform="translate(-5908.44 1970.21)" fill="#1D1D1B"/>
</g>
<g id="Vector">
<use xlink:href="#path17_fill" transform="translate(-5898.37 1970.21)" fill="#1D1D1B"/>
</g>
<g id="Vector">
<use xlink:href="#path18_fill" transform="translate(-5891.43 1970.04)" fill="#1D1D1B"/>
</g>
<g id="Vector">
<use xlink:href="#path19_fill" transform="translate(-5884.17 1970.19)" fill="#1D1D1B"/>
</g>
<g id="Vector">
<use xlink:href="#path20_fill" transform="translate(-5876.6 1970.21)" fill="#1D1D1B"/>
</g>
<g id="Vector">
<use xlink:href="#path21_fill" transform="translate(-5868.45 1970.21)" fill="#1D1D1B"/>
</g>
<g id="Vector">
<use xlink:href="#path22_fill" transform="translate(-5860.3 1970.21)" fill="#1D1D1B"/>
</g>
<g id="Vector">
<use xlink:href="#path23_fill" transform="translate(-5853.21 1970.21)" fill="#1D1D1B"/>
</g>
</g>
</g>
<defs>
<path id="path0_fill" d="M 26.25 26.1046C 24.4022 27.0214 22.3839 27.5239 20.3305 27.5785C 18.446 27.6954 16.5833 27.1146 15.0838 25.9425C 13.5843 24.7704 12.5483 23.0855 12.1656 21.1965L 25.0389 21.1965C 24.9423 20.4077 24.8923 19.6138 24.8892 18.8189C 24.8189 16.2443 25.2656 13.6823 26.2018 11.291C 27.138 8.89961 28.5438 6.72959 30.3324 4.91478C 28.7733 3.26195 26.8855 1.96985 24.7963 1.12558C 22.7071 0.28131 20.465 -0.095506 18.2212 0.0205316C 6.8857 0.076148 0 8.34909 0 18.8884C 0 28.4544 6.80405 37.7007 19.4187 37.645C 23.9646 37.6265 28.4197 36.3431 32.3056 33.9326C 29.6041 31.9599 27.5046 29.2459 26.25 26.1046ZM 17.9899 8.89135C 18.6612 8.89146 19.3253 9.03293 19.9407 9.30692C 20.5561 9.58092 21.1096 9.98156 21.5667 10.4839C 22.0238 10.9861 22.3747 11.5793 22.5975 12.2263C 22.8203 12.8733 22.9102 13.5603 22.8616 14.2444L 12.3425 14.2444C 12.9413 11.4219 14.5743 8.90526 17.9899 8.89135Z"/>
<path id="path1_fill" d="M 34.4013 17.3169C 34.3604 7.33376 28.4545 0.00629703 18.0715 0.00629703C 13.328 -0.11977 8.72368 1.65127 5.23912 4.94225C 8.19221 8.39775 9.74892 12.8712 9.59371 17.4559C 9.57546 18.7159 9.48914 19.9738 9.33515 21.224L 5.19108e-07 21.224C 0.208652 22.9293 0.638827 24.5986 1.27916 26.1877C 2.59149 25.5603 3.85207 24.8257 5.0486 23.9909L 9.45762 32.4168C 8.78993 33.003 8.08034 33.5375 7.33476 34.0157C 10.8394 36.4753 15.0192 37.7317 19.2691 37.603C 24.7025 37.6242 29.9814 35.7561 34.238 32.3055L 29.8289 23.8796C 27.017 26.0393 23.6501 27.3148 20.14 27.5503C 18.2555 27.6673 16.3928 27.0865 14.8933 25.9144C 13.3937 24.7423 12.3578 23.0574 11.9751 21.1683L 34.1699 21.071C 34.3143 19.8249 34.3915 18.5717 34.4013 17.3169ZM 12.1929 14.2719C 12.7916 11.4077 14.4246 8.89102 17.8402 8.87712C 18.5069 8.88481 19.165 9.03186 19.774 9.30922C 20.383 9.58657 20.9299 9.98835 21.3812 10.4898C 21.8325 10.9913 22.1785 11.5819 22.398 12.2251C 22.6175 12.8684 22.7058 13.5507 22.6575 14.2302L 12.1929 14.2719Z"/>
<path id="path2_fill" d="M 3.76944 3.1824e-07C 2.57291 0.834798 1.31233 1.56947 9.34394e-07 2.19685C 1.25457 5.33811 3.3541 8.05215 6.0556 10.0249C 6.80117 9.54658 7.51077 9.01211 8.17846 8.42589L 3.76944 3.1824e-07Z"/>
<path id="path3_fill" d="M 0.211297 16.2817L 9.54645 16.2817C 9.70044 15.0315 9.78676 13.7736 9.805 12.5137C 9.96022 7.92899 8.40351 3.45549 5.45041 -7.95599e-08C 3.66175 1.81482 2.25597 3.98483 1.31979 6.37619C 0.38361 8.76755 -0.0631121 11.3295 0.00717661 13.9041C 0.0282953 14.7001 0.0964594 15.4941 0.211297 16.2817Z"/>
<path id="path4_fill" d="M 4.97248 9.65445C 6.37389 9.65383 7.73289 9.16317 8.82356 8.26404L 7.6941 6.15062C 6.97075 6.70277 6.10509 7.0266 5.20381 7.08219C 4.71776 7.11183 4.23767 6.96055 3.85238 6.65635C 3.4671 6.35215 3.20271 5.91564 3.10817 5.4276L 8.79635 5.4276C 8.83708 5.10476 8.8598 4.7798 8.86439 4.45432C 8.91543 3.87357 8.84429 3.28838 8.65573 2.73805C 8.46718 2.18771 8.16557 1.68495 7.77117 1.26354C 7.37676 0.842117 6.89869 0.511785 6.36904 0.294717C 5.83938 0.0776485 5.27041 -0.0211332 4.70031 0.00500309C 4.07487 -0.0248632 3.45022 0.079239 2.86647 0.310626C 2.28273 0.542013 1.7528 0.89557 1.3107 1.3486C 0.868597 1.80162 0.524101 2.34411 0.299331 2.94121C 0.0745604 3.53832 -0.0255195 4.17686 0.005521 4.81582C -0.00317435 5.47395 0.121163 6.12682 0.37075 6.73359C 0.620336 7.34036 0.989798 7.88796 1.45602 8.34214C 1.92225 8.79632 2.4752 9.1473 3.08027 9.3731C 3.68534 9.59891 4.32951 9.69469 4.97248 9.65445ZM 4.63227 2.22966C 4.80511 2.23091 4.97582 2.26871 5.13365 2.34069C 5.29149 2.41266 5.43303 2.51725 5.54936 2.64787C 5.66568 2.77848 5.75428 2.93229 5.80957 3.09961C 5.86486 3.26693 5.88564 3.44414 5.87061 3.62007L 3.14899 3.62007C 3.17979 3.24019 3.34956 2.88612 3.62446 2.62843C 3.89937 2.37074 4.25921 2.22836 4.63227 2.22966Z"/>
<path id="path5_fill" d="M 4.08151 9.16555C 4.5052 9.19686 4.93017 9.12639 5.32243 8.9598C 5.71468 8.79321 6.06333 8.53511 6.34046 8.20617C 6.34046 8.20617 6.34046 8.44254 6.34046 8.53987L 6.34046 8.84576C 6.34046 10.2362 5.34707 10.6116 4.25842 10.6116C 3.40904 10.5972 2.573 10.3931 1.80896 10.0137L 0.951657 12.3496C 2.01647 12.8788 3.18325 13.159 4.36728 13.1699C 6.83035 13.1699 9.45671 11.9325 9.45671 8.56768L 9.45671 0.225212L 6.55818 0.225212L 6.55818 0.684048C 6.5535 0.753486 6.5535 0.823171 6.55818 0.89261C 5.88394 0.285423 5.0068 -0.0332354 4.10873 0.00274692C 3.54275 0.00073516 2.98254 0.118992 2.46368 0.35001C 1.94482 0.581027 1.47864 0.919756 1.09474 1.34469C 0.710849 1.76962 0.417624 2.27148 0.23369 2.81838C 0.0497561 3.36529 -0.020862 3.9453 0.0263067 4.52158C -0.0388687 5.10538 0.0174045 5.69667 0.191445 6.2567C 0.365486 6.81673 0.653363 7.33287 1.03622 7.77132C 1.41908 8.20976 1.88828 8.56061 2.41308 8.80088C 2.93788 9.04115 3.50643 9.16542 4.08151 9.16555ZM 4.68027 2.58891C 5.59201 2.58891 6.43572 2.95042 6.43572 4.5772C 6.43572 6.20398 5.59201 6.59329 4.80274 6.59329C 3.59162 6.59329 3.07452 5.57829 3.07452 4.42425C 3.04304 4.19155 3.06126 3.95465 3.12792 3.72983C 3.19459 3.50501 3.30812 3.29761 3.4607 3.12189C 3.61328 2.94617 3.8013 2.80629 4.01183 2.71189C 4.22235 2.61748 4.4504 2.57079 4.68027 2.57501L 4.68027 2.58891Z"/>
<path id="path6_fill" d="M 6.13725 3.045L 6.13725 3.978e-08L 5.78344 3.978e-08C 5.13543 0.0252638 4.5111 0.255562 3.99674 0.659065C 3.48238 1.06257 3.10338 1.61935 2.91213 2.25247C 2.92285 2.0626 2.92285 1.87226 2.91213 1.6824L 2.91213 0.125137L -3.32229e-06 0.125137L -3.32229e-06 9.32966L 3.03461 9.32966L 3.03461 5.7563C 3.03461 4.0739 3.83749 2.97548 5.52489 2.97548C 5.73093 2.97489 5.93636 2.99822 6.13725 3.045Z"/>
<path id="path7_fill" d="M 10.2197 4.77471C 10.1055 3.47057 9.51772 2.25731 8.57206 1.37367C 7.6264 0.490031 6.39132 1.50533e-07 5.10984 1.50533e-07C 3.82836 1.50533e-07 2.59328 0.490031 1.64762 1.37367C 0.701961 2.25731 0.114205 3.47057 3.73757e-06 4.77471C 0.114205 6.07886 0.701961 7.29212 1.64762 8.17576C 2.59328 9.0594 3.82836 9.54943 5.10984 9.54943C 6.39132 9.54943 7.6264 9.0594 8.57206 8.17576C 9.51772 7.29212 10.1055 6.07886 10.2197 4.77471ZM 5.11664 6.99937C 4.83796 6.99988 4.56213 6.94208 4.30615 6.82954C 4.05016 6.71699 3.81944 6.55207 3.6282 6.34495C 3.43697 6.13783 3.28926 5.89289 3.1942 5.62523C 3.09913 5.35757 3.0587 5.07285 3.07543 4.78862C 3.04213 4.49451 3.0701 4.19653 3.15749 3.91424C 3.24487 3.63196 3.38969 3.37175 3.58246 3.15069C 3.77522 2.92964 4.01157 2.75274 4.27598 2.63162C 4.54038 2.51049 4.82687 2.44787 5.11664 2.44787C 5.40641 2.44787 5.6929 2.51049 5.9573 2.63162C 6.22171 2.75274 6.45805 2.92964 6.65082 3.15069C 6.84359 3.37175 6.98842 3.63196 7.0758 3.91424C 7.16319 4.19653 7.19115 4.49451 7.15785 4.78862C 7.17457 5.07285 7.13416 5.35757 7.03909 5.62523C 6.94402 5.89289 6.79632 6.13783 6.60509 6.34495C 6.41385 6.55207 6.18313 6.71699 5.92714 6.82954C 5.67115 6.94208 5.39532 6.99988 5.11664 6.99937Z"/>
<path id="path8_fill" d="M 6.05119 7.82801C 6.04003 8.01786 6.04003 8.20823 6.05119 8.39808L 6.05119 9.20452L 8.96332 9.20452L 8.96332 -7.95599e-08L 5.9015 -7.95599e-08L 5.9015 4.0739C 5.9015 5.46431 5.28913 6.61835 3.99636 6.61835C 3.37039 6.61835 3.03019 6.25685 3.03019 5.4087L 3.03019 -7.95599e-08L 0.0364116 -7.95599e-08L 0.0364116 5.97877C -0.0335093 6.42738 -0.00245247 6.88638 0.127235 7.32089C 0.256922 7.7554 0.481821 8.154 0.78485 8.48641C 1.08788 8.81882 1.46107 9.07629 1.87607 9.23927C 2.29106 9.40224 2.73696 9.46644 3.17988 9.42698C 3.75623 9.45684 4.32944 9.32329 4.83616 9.04111C 5.34288 8.75893 5.76338 8.3391 6.05119 7.82801Z"/>
<path id="path9_fill" d="M 3.0346 9.55433C 3.04794 9.29033 3.04794 9.0258 3.0346 8.7618C 3.66828 9.32602 4.48024 9.63713 5.32076 9.63776C 5.91475 9.63126 6.50089 9.49828 7.04176 9.24732C 7.58263 8.99637 8.06634 8.63294 8.46202 8.18024C 8.8577 7.72755 9.15665 7.19553 9.33979 6.61815C 9.52293 6.04077 9.58623 5.43072 9.52566 4.82694C 9.52566 1.96269 7.9199 0.00221195 5.44323 0.00221195C 4.92464 -0.0168518 4.40881 0.0875308 3.93648 0.307117C 3.46415 0.526703 3.04824 0.85548 2.72161 1.26749C 2.73218 1.07298 2.73218 0.878021 2.72161 0.683513L 2.72161 0.224677L -4.56815e-06 0.224677L -4.56815e-06 13.0165L 3.0346 13.0165L 3.0346 9.55433ZM 4.7084 2.60228C 5.75623 2.60228 6.47745 3.49214 6.47745 4.86865C 6.47745 6.24516 5.64736 7.0655 4.7084 7.0655C 3.5245 7.0655 2.93935 5.98098 2.93935 4.86865C 2.89852 3.29749 3.75583 2.61618 4.66757 2.61618L 4.7084 2.60228Z"/>
<path id="path10_fill" d="M 1.64658 3.36479C 2.55596 3.36479 3.29316 2.61156 3.29316 1.6824C 3.29316 0.753235 2.55596 0 1.64658 0C 0.737203 0 -4.15286e-06 0.753235 -4.15286e-06 1.6824C -4.15286e-06 2.61156 0.737203 3.36479 1.64658 3.36479Z"/>
<path id="path11_fill" d="M 3.5381 0.00256937C 3.07044 -0.0187998 2.6062 0.0934899 2.19754 0.326824C 1.78889 0.560158 1.452 0.905291 1.22473 1.32346C 1.23834 1.14761 1.23834 0.970947 1.22473 0.795103L 1.22473 0.169417L 2.07643e-06 0.169417L 2.07643e-06 9.98572L 1.36081 9.98572L 1.36081 6.78777C 1.38055 6.58434 1.38055 6.37942 1.36081 6.17599C 1.58974 6.54284 1.90555 6.84474 2.279 7.05375C 2.65245 7.26277 3.07147 7.37214 3.49728 7.37174C 3.944 7.35782 4.38296 7.24877 4.78607 7.05159C 5.18919 6.85441 5.54759 6.57342 5.83834 6.22661C 6.12909 5.87981 6.3458 5.47481 6.4746 5.03753C 6.60339 4.60025 6.64145 4.14032 6.58632 3.68716C 6.58632 1.50421 5.42963 0.00256937 3.5381 0.00256937ZM 3.23872 6.2038C 1.97317 6.2038 1.29277 4.96634 1.29277 3.71497C 1.29277 1.93524 2.24534 1.18442 3.27955 1.18442C 4.31377 1.18442 5.22551 2.17161 5.22551 3.70106C 5.22551 5.23051 4.35459 6.2038 3.26594 6.2038L 3.23872 6.2038Z"/>
<path id="path12_fill" d="M 3.46351 0.000850983C 2.99392 -0.00978552 2.52729 0.0794509 2.09325 0.262895C 1.65921 0.446339 1.26724 0.719982 0.942214 1.06646C 0.617192 1.41293 0.366219 1.82467 0.205232 2.27552C 0.044245 2.72638 -0.0232401 3.20651 0.00705736 3.68544C -0.00646857 4.1778 0.0793863 4.66774 0.259276 5.12471C 0.439166 5.58169 0.709235 5.99592 1.05265 6.3416C 1.39607 6.68727 1.80549 6.95697 2.25538 7.13391C 2.70527 7.31085 3.18601 7.39122 3.66764 7.37003C 4.66402 7.38691 5.63204 7.03085 6.38926 6.36893L 5.83132 5.38174C 5.27487 5.89687 4.55447 6.18833 3.80372 6.20208C 3.49621 6.21527 3.18929 6.1645 2.90157 6.05285C 2.61385 5.94121 2.35131 5.77101 2.1299 5.55258C 1.90849 5.33415 1.73281 5.07205 1.61351 4.78216C 1.49422 4.49228 1.43379 4.18065 1.43591 3.86619L 6.38926 3.86619C 6.40169 3.67638 6.40169 3.48593 6.38926 3.29612C 6.42913 2.87906 6.38314 2.45809 6.25425 2.06028C 6.12535 1.66246 5.91641 1.29661 5.64085 0.986246C 5.36529 0.67588 5.02921 0.427869 4.65422 0.258161C 4.27923 0.0884535 3.87364 0.000805863 3.46351 0.000850983ZM 1.4223 2.8929C 1.47003 2.38283 1.70352 1.90968 2.07653 1.56719C 2.44953 1.22469 2.93483 1.03785 3.43629 1.04366C 3.66803 1.04288 3.89741 1.09127 4.1099 1.18577C 4.32238 1.28028 4.51334 1.41884 4.67069 1.59268C 4.82803 1.76652 4.94833 1.97185 5.02397 2.19566C 5.09961 2.41948 5.12893 2.65691 5.11009 2.8929L 1.4223 2.8929Z"/>
<path id="path13_fill" d="M 6.40941 -9.54719e-07L 4.61315 3.97657L 4.23212 4.92205C 4.23212 4.92205 4.0416 4.3937 3.85109 3.97657L 2.09564 -9.54719e-07L 0.598753 -9.54719e-07L 4.15286e-06 7.03548L 1.27916 7.03548L 1.57854 2.86425C 1.57854 2.44712 1.57854 1.65459 1.57854 1.65459L 2.014 2.6974L 3.64697 6.20123L 4.77644 6.20123L 6.40941 2.68349C 6.66797 2.14123 6.84487 1.65459 6.84487 1.65459C 6.84487 1.65459 6.84487 2.44712 6.84487 2.86425L 7.14425 7.03548L 8.43702 7.03548L 7.83826 -9.54719e-07L 6.40941 -9.54719e-07Z"/>
<path id="path14_fill" d="M 3.49728 0.00213549C 2.78908 0.0239902 2.10287 0.25852 1.52434 0.676443C 0.945801 1.09437 0.500581 1.67716 0.244258 2.35206C -0.0120657 3.02696 -0.0681311 3.76406 0.0830646 4.47132C 0.23426 5.17858 0.586016 5.82466 1.09441 6.32889C 1.60281 6.83312 2.24532 7.17316 2.94171 7.30655C 3.6381 7.43993 4.35751 7.36076 5.01013 7.07891C 5.66275 6.79706 6.21965 6.32502 6.61129 5.72174C 7.00293 5.11846 7.21197 4.41066 7.21229 3.68672C 7.2144 3.1928 7.11893 2.70352 6.9316 2.24819C 6.74426 1.79286 6.46891 1.38084 6.12204 1.03682C 5.77517 0.692787 5.36392 0.423825 4.91291 0.246037C 4.4619 0.0682493 3.98041 -0.0147077 3.49728 0.00213549ZM 3.49728 6.20337C 3.00698 6.21998 2.523 6.08662 2.10736 5.82039C 1.69171 5.55415 1.36334 5.16716 1.16433 4.70901C 0.96533 4.25087 0.904756 3.74244 0.990371 3.24889C 1.07599 2.75535 1.30389 2.29917 1.64488 1.93881C 1.98587 1.57846 2.42441 1.33036 2.90429 1.2263C 3.38417 1.12224 3.88353 1.16696 4.33838 1.35474C 4.79322 1.54252 5.18281 1.8648 5.45724 2.28027C 5.73167 2.69574 5.87842 3.18548 5.87869 3.68672C 5.88962 4.01204 5.83656 4.33629 5.72264 4.64028C 5.60872 4.94427 5.43626 5.22181 5.21547 5.45647C 4.99469 5.69113 4.73006 5.87815 4.43727 6.00644C 4.14447 6.13474 3.82946 6.2017 3.51089 6.20337L 3.49728 6.20337Z"/>
<path id="path15_fill" d="M 4.80365 2.86425L 1.31998 2.86425L 1.31998 -9.54719e-07L -2.07643e-06 -9.54719e-07L -2.07643e-06 7.03548L 1.31998 7.03548L 1.31998 4.01829L 4.80365 4.01829L 4.80365 7.03548L 6.12364 7.03548L 6.12364 -9.54719e-07L 4.80365 -9.54719e-07L 4.80365 2.86425Z"/>
<path id="path16_fill" d="M -3.32229e-06 1.15404L 2.39502 1.15404L 2.39502 7.03548L 3.7014 7.03548L 3.7014 1.15404L 6.11004 1.15404L 6.11004 -9.54719e-07L -3.32229e-06 -9.54719e-07L -3.32229e-06 1.15404Z"/>
<path id="path17_fill" d="M -1.24586e-06 1.15404L 2.39503 1.15404L 2.39503 7.03548L 3.7014 7.03548L 3.7014 1.15404L 6.11003 1.15404L 6.11003 -9.54719e-07L -1.24586e-06 -9.54719e-07L -1.24586e-06 1.15404Z"/>
<path id="path18_fill" d="M 3.46351 0.000850983C 2.99392 -0.00978552 2.52729 0.0794509 2.09325 0.262895C 1.6592 0.446339 1.26723 0.719982 0.942208 1.06646C 0.617186 1.41293 0.366217 1.82467 0.205231 2.27552C 0.0442437 2.72638 -0.0232413 3.20651 0.00705611 3.68544C -0.00646982 4.1778 0.0793902 4.66774 0.25928 5.12471C 0.43917 5.58169 0.709234 5.99592 1.05265 6.3416C 1.39607 6.68727 1.80549 6.95697 2.25538 7.13391C 2.70528 7.31085 3.18601 7.39122 3.66764 7.37003C 4.66402 7.38691 5.63204 7.03085 6.38925 6.36893L 5.83132 5.38174C 5.27487 5.89687 4.55447 6.18833 3.80371 6.20208C 3.49621 6.21527 3.18929 6.1645 2.90157 6.05285C 2.61385 5.94121 2.35132 5.77101 2.1299 5.55258C 1.90849 5.33415 1.7328 5.07205 1.61351 4.78216C 1.49421 4.49228 1.4338 4.18065 1.43591 3.86619L 6.44369 3.86619C 6.45604 3.67638 6.45604 3.48594 6.44369 3.29612C 6.48408 2.87436 6.43666 2.44863 6.30454 2.04693C 6.17242 1.64522 5.95858 1.27663 5.6771 0.965385C 5.39562 0.65414 5.05286 0.407287 4.67134 0.241048C 4.28983 0.0748089 3.8782 -0.00704965 3.46351 0.000850983ZM 1.4223 2.8929C 1.47003 2.38283 1.70352 1.90968 2.07653 1.56719C 2.44954 1.22469 2.93483 1.03785 3.43629 1.04366C 3.66803 1.04288 3.89741 1.09127 4.10989 1.18577C 4.32238 1.28028 4.51334 1.41884 4.67069 1.59268C 4.82803 1.76652 4.94833 1.97185 5.02397 2.19566C 5.09961 2.41948 5.12893 2.65691 5.11009 2.8929L 1.4223 2.8929Z"/>
<path id="path19_fill" d="M 6.17808 0.0139032L 4.66758 0.0139032L 3.38841 2.14123L 3.15708 2.55835L 2.8577 2.14123L 1.57854 -1.27296e-06L 0.136081 -1.27296e-06L 2.3542 3.42041L 2.07643e-06 7.03548L 1.49689 7.03548L 2.93934 4.68568C 3.01508 4.56508 3.08326 4.43969 3.14347 4.31027C 3.14347 4.31027 3.25234 4.51883 3.3612 4.68568L 4.80366 7.03548L 6.30054 7.03548L 3.94635 3.42041L 6.17808 0.0139032Z"/>
<path id="path20_fill" d="M 4.80365 2.86425L 1.31999 2.86425L 1.31999 -9.54719e-07L -1.24586e-06 -9.54719e-07L -1.24586e-06 7.03548L 1.31999 7.03548L 1.31999 4.01829L 4.80365 4.01829L 4.80365 7.03548L 6.12364 7.03548L 6.12364 -9.54719e-07L 4.80365 -9.54719e-07L 4.80365 2.86425Z"/>
<path id="path21_fill" d="M 1.87792 4.19904C 1.64658 4.53274 1.31998 5.01938 1.26555 5.14452C 1.26555 5.14452 1.26555 4.57445 1.26555 4.19904L 1.26555 0.0278079L -4.15286e-06 0.0278079L -4.15286e-06 7.06329L 1.26555 7.06329L 4.24572 2.89205C 4.46345 2.55835 4.80366 2.08561 4.84448 1.96048C 4.84448 2.07171 4.84448 2.55835 4.84448 2.89205L 4.84448 7.06329L 6.19168 7.06329L 6.19168 -9.54719e-07L 4.83087 -9.54719e-07L 1.87792 4.19904Z"/>
<path id="path22_fill" d="M 3.3612 3.35089L 5.66096 -9.54719e-07L 4.16408 -9.54719e-07L 2.28616 2.83644L 1.31999 2.83644L 1.31999 -9.54719e-07L 3.32229e-06 -9.54719e-07L 3.32229e-06 7.03548L 1.31999 7.03548L 1.31999 3.99048L 2.31337 3.99048L 4.3682 7.03548L 5.93313 7.03548L 3.3612 3.3787L 3.3612 3.35089Z"/>
<path id="path23_fill" d="M 4.84449 -9.54719e-07L 1.87792 4.17123C 1.64658 4.50493 1.31999 4.99157 1.26556 5.11671C 1.26556 5.11671 1.26556 4.54664 1.26556 4.17123L 1.26556 -9.54719e-07L 2.07643e-06 -9.54719e-07L 2.07643e-06 7.03548L 1.26556 7.03548L 4.24573 2.86425C 4.46043 2.56414 4.66026 2.25322 4.84449 1.93267C 4.84449 2.0439 4.84449 2.53055 4.84449 2.86425L 4.84449 7.03548L 6.12363 7.03548L 6.12363 -9.54719e-07L 4.84449 -9.54719e-07Z"/>
</defs>
</svg>
